<svg width="25" height="25" viewBox="0 0 25 25" fill="none" xmlns="http://www.w3.org/2000/svg">
<g filter="url(#filter0_d_7981_262834)">
<path d="M5.949 11.4343C6.15699 11.7264 6.34898 12.03 6.59945 12.2897C6.79365 12.1829 7.01764 12.1637 7.22066 12.0776C8.29758 11.6206 8.95134 10.8133 9.24264 9.69921C9.61007 8.29407 10.095 6.93332 10.7846 5.6493C11.3827 4.53626 12.1148 3.53063 13.1393 2.76176C13.5155 2.47952 13.9188 2.24223 14.3613 2.07398C14.4181 2.00603 14.5246 2.08001 14.5776 2C14.6879 2 14.7977 2 14.908 2C15.2677 2.19455 15.3378 2.36115 15.2677 2.78806C14.8749 5.17416 15.3163 7.40134 16.5703 9.47178C16.5907 9.50575 16.6183 9.53589 16.6553 9.58467C16.9935 9.03555 17.2517 8.46834 17.4641 7.87921C17.6516 7.35804 17.7868 6.82317 17.8822 6.27734C17.9727 5.76 18.4196 5.59559 18.8201 5.93921C20.638 7.49834 21.7861 9.44602 22.1303 11.8113C22.6263 15.2189 21.5737 18.1125 19.0623 20.48C18.5625 20.9513 18.0003 21.3458 17.4023 21.6884C17.3201 21.7355 17.2406 21.7908 17.143 21.8034C17.1032 21.7152 17.1579 21.6434 17.1904 21.5716C17.6384 20.5709 17.8 19.5182 17.7377 18.4331C17.6941 17.6785 17.5159 16.9485 17.2097 16.253C16.5013 14.6429 15.3339 13.4817 13.7268 12.7555C13.5966 12.6964 13.4488 12.5774 13.3065 12.7068C13.158 12.8416 13.2811 12.9885 13.339 13.1189C13.7815 14.1174 13.9884 15.1636 13.9288 16.2508C13.8532 17.6368 13.3953 18.894 12.5479 20.0026C12.2996 20.3276 11.898 20.3035 11.648 19.9506C11.1664 19.2699 10.8459 18.523 10.7284 17.6938C10.6693 17.2789 10.6743 16.8641 10.6997 16.4481C10.7852 15.9215 10.8961 15.4025 11.1101 14.9093C11.1515 14.8134 11.1626 14.706 11.0688 14.6254C10.975 14.5448 10.8757 14.5799 10.7802 14.6271C9.15768 15.4233 8.174 16.6975 7.87498 18.478C7.84794 18.6386 7.83195 18.8025 7.82036 18.9658C7.81539 19.0321 7.82588 19.105 7.75526 19.1494C7.63664 19.1165 7.5892 19.0113 7.52796 18.9236C6.57573 17.5557 5.98872 16.053 5.79949 14.3941C5.6908 13.4422 5.7377 12.5018 5.89548 11.5625C5.90265 11.5159 5.90983 11.4688 5.949 11.4343Z" fill="#FF89B6"/>
<path d="M10.7433 16.438C10.7008 17.2781 10.7747 18.1007 11.1124 18.8838C11.2751 19.2614 11.4682 19.6231 11.7132 19.9547C11.9421 20.2643 12.2869 20.2588 12.5209 19.9508C13.2397 19.0039 13.6756 17.938 13.8267 16.7668C13.9933 15.4795 13.792 14.2399 13.2485 13.0572C13.1873 12.9241 13.1128 12.7931 13.2419 12.6621C13.3616 12.541 13.4874 12.5931 13.6204 12.6517C15.8101 13.614 17.1788 15.251 17.6726 17.5795C17.9821 19.04 17.7819 20.4534 17.143 21.8048C16.9709 21.9818 16.7353 22.0498 16.5207 22.1484C15.6815 22.532 14.7999 22.7765 13.8874 22.9118C13.8333 22.92 13.7776 22.9151 13.7225 22.9162C13.6419 22.9579 13.5492 22.9102 13.4681 22.9491C13.4262 22.9513 13.3843 22.9535 13.3423 22.9557C13.2005 22.9962 13.0554 22.965 12.912 22.9749C12.8083 22.9825 12.7029 22.9584 12.6003 22.9896C12.4883 22.9896 12.3763 22.9902 12.2643 22.9902C12.0861 22.9447 11.9013 23.0061 11.7236 22.9562C11.6569 22.9546 11.5907 22.9529 11.5239 22.9513C11.4583 22.9091 11.3777 22.9573 11.3121 22.9162C11.2856 22.9135 11.2597 22.9113 11.2332 22.9085C11.1868 22.8795 11.1273 22.9031 11.0809 22.8724C10.9623 22.7989 10.8718 22.6959 10.7869 22.5879C10.0167 21.6103 9.6283 20.4972 9.65809 19.2587C9.68236 18.2465 9.98193 17.3099 10.5772 16.4775C10.6092 16.4331 10.6368 16.3783 10.6898 16.3613C10.7665 16.3366 10.7665 16.3832 10.7433 16.438Z" fill="#FF5BC0"/>
<path d="M5.94921 11.4342C5.97128 11.7153 5.87804 11.9839 5.85818 12.2617C5.81956 12.8026 5.77211 13.338 5.81625 13.885C5.86976 14.5503 5.95803 15.2057 6.13347 15.8485C6.46174 17.0504 7.0035 18.1497 7.76264 19.1416C7.88291 19.3395 7.82443 19.5653 7.85312 19.7768C7.96125 20.5654 8.20731 21.2987 8.65253 21.964C8.7088 22.0478 8.81363 22.1229 8.7546 22.2506C5.72246 20.915 3.77551 18.6577 3.01141 15.4501C2.47737 13.2082 2.76977 11.0369 3.79979 8.96754C3.91178 8.7423 4.08391 8.62174 4.34211 8.64366C4.58099 8.66394 4.73271 8.79546 4.80443 9.01906C5.07863 9.87452 5.46757 10.6763 5.94921 11.4342Z" fill="#FF5BC0"/>
<path d="M14.3617 2.07397C14.4092 2.13974 14.3364 2.13864 14.3121 2.14905C13.3185 2.56336 12.5417 3.24565 11.8802 4.07427C10.944 5.24759 10.3228 6.58258 9.82457 7.98388C9.58734 8.65137 9.41632 9.33805 9.20336 10.0116C8.94627 10.8254 8.44477 11.4688 7.69005 11.8995C7.3502 12.0935 7.00043 12.2612 6.59989 12.2897C6.41287 9.15282 7.47268 6.50366 9.78926 4.36856C11.0482 3.20839 12.5439 2.4702 14.2178 2.09042C14.2646 2.07945 14.3137 2.07945 14.3617 2.07397Z" fill="#FF5BC0"/>
<path d="M8.7552 22.2505C8.70776 22.0911 8.58914 21.9732 8.50528 21.8351C8.00213 21.006 7.76601 20.1061 7.7627 19.1416C7.80849 17.6405 8.39053 16.3828 9.51489 15.3805C9.90991 15.0281 10.3573 14.7481 10.8472 14.5409C11.0315 14.4631 11.197 14.5782 11.1976 14.7744C11.1976 14.8368 11.181 14.8944 11.1556 14.9514C10.957 15.403 10.8346 15.8754 10.7744 16.3642C10.7711 16.3894 10.7535 16.413 10.7424 16.4371C10.7319 16.3697 10.7148 16.3757 10.6779 16.4261C10.263 16.9884 9.97997 17.6109 9.83322 18.2916C9.75047 18.6763 9.69254 19.0671 9.70799 19.4622C9.75764 20.7287 10.1692 21.8538 11.0481 22.7914C11.0712 22.8161 11.09 22.8451 11.1104 22.872C11.069 22.9005 11.0265 22.8999 10.9846 22.8736C10.3722 22.8084 9.78578 22.6369 9.20759 22.4347C9.05533 22.3804 8.90637 22.3125 8.7552 22.2505Z" fill="#F741B1"/>
<path d="M11.7231 22.9561C11.903 22.972 12.0878 22.9133 12.2638 22.9901C12.0834 22.9835 11.8991 23.0333 11.7231 22.9561Z" fill="#FEB976"/>
<path d="M12.8865 22.9548C13.0382 22.9548 13.19 22.9548 13.3417 22.9548C13.1949 23.0305 13.0388 22.985 12.8865 22.9894C12.8727 22.9817 12.8683 22.974 12.8727 22.9663C12.8772 22.9587 12.8816 22.9548 12.8865 22.9548Z" fill="#FDB679"/>
<path d="M12.8873 22.9545C12.8867 22.966 12.8867 22.9775 12.8867 22.9891C12.7913 22.9891 12.6958 22.9885 12.5999 22.9885C12.6892 22.9211 12.7918 22.9677 12.8873 22.9545Z" fill="#FED274"/>
<path d="M10.9854 22.8735C11.0273 22.8729 11.0692 22.8724 11.1111 22.8718C11.1547 22.874 11.2011 22.8647 11.232 22.908C11.1476 22.9091 11.0593 22.942 10.9854 22.8735Z" fill="#FEC17E"/>
<path d="M13.4673 22.9481C13.5451 22.8829 13.6367 22.924 13.7216 22.9152C13.6433 22.9783 13.5534 22.9492 13.4673 22.9481Z" fill="#FDB377"/>
<path d="M11.3105 22.9156C11.3823 22.9211 11.4606 22.8871 11.5224 22.9507C11.4501 22.9518 11.3734 22.9748 11.3105 22.9156Z" fill="#FEB689"/>
</g>
<defs>
<filter id="filter0_d_7981_262834" x="0.749512" y="0" width="23.5002" height="25" filterUnits="userSpaceOnUse" color-interpolation-filters="sRGB">
<feFlood flood-opacity="0" result="BackgroundImageFix"/>
<feColorMatrix in="SourceAlpha" type="matrix" values="0 0 0 0 0 0 0 0 0 0 0 0 0 0 0 0 0 0 127 0" result="hardAlpha"/>
<feOffset/>
<feGaussianBlur stdDeviation="1"/>
<feComposite in2="hardAlpha" operator="out"/>
<feColorMatrix type="matrix" values="0 0 0 0 1 0 0 0 0 1 0 0 0 0 1 0 0 0 1 0"/>
<feBlend mode="normal" in2="BackgroundImageFix" result="effect1_dropShadow_7981_262834"/>
<feBlend mode="normal" in="SourceGraphic" in2="effect1_dropShadow_7981_262834" result="shape"/>
</filter>
</defs>
</svg>
