<svg width="14" height="26" viewBox="0 0 14 26" fill="none" xmlns="http://www.w3.org/2000/svg">
<path d="M4.37112 25.4405C4.66981 25.5821 5.01746 25.464 5.19173 25.1588L13.1331 11.1941C13.2619 10.968 13.2694 10.6828 13.1529 10.4494C13.0365 10.2156 12.8141 10.0705 12.5732 10.0705H7.27369L9.24491 1.41288C9.32433 1.06327 9.16329 0.701948 8.86417 0.559371C8.56681 0.417771 8.21739 0.536422 8.04356 0.841108L0.1022 14.8059C-0.0266265 15.0319 -0.0341267 15.3171 0.0823466 15.5505C0.198379 15.7849 0.420737 15.9299 0.661625 15.9299H5.9616L3.99082 24.5875C3.91097 24.9371 4.072 25.2985 4.37112 25.4405Z" fill="#FCC00D"/>
</svg>
