<svg width="40" height="49" viewBox="0 0 40 49" fill="none" xmlns="http://www.w3.org/2000/svg">
<path d="M32.4493 4.99827C30.1966 3.14494 27.5626 1.81706 24.7373 1.11038C21.912 0.403702 18.9658 0.33585 16.1112 0.911715C12.4409 1.6678 9.06417 3.46805 6.38337 6.09801C3.70258 8.72796 1.83068 12.0768 0.990672 15.7455C0.150662 19.4143 0.377945 23.2483 1.64545 26.7909C2.91295 30.3335 5.16725 33.4354 8.1398 35.727C11.5336 38.2229 14.4233 41.3454 16.6541 44.9278L18.1741 47.4674C18.3672 47.79 18.64 48.0569 18.9661 48.2422C19.2922 48.4275 19.6604 48.5249 20.0351 48.5249C20.4097 48.5249 20.778 48.4275 21.104 48.2422C21.4301 48.0569 21.703 47.79 21.896 47.4674L23.3531 45.0281C25.2957 41.5969 27.9445 38.6216 31.1226 36.3008C33.6145 34.5781 35.674 32.2972 37.1385 29.6378C38.6029 26.9785 39.4323 24.0137 39.5612 20.9772C39.69 17.9407 39.1148 14.9157 37.881 12.1407C36.6472 9.36583 34.7885 6.91696 32.4515 4.98736L32.4493 4.99827ZM20.0329 28.8914C18.315 28.8914 16.6357 28.3795 15.2073 27.4206C13.7789 26.4616 12.6656 25.0986 12.0082 23.5039C11.3508 21.9092 11.1788 20.1544 11.5139 18.4615C11.8491 16.7686 12.6763 15.2135 13.8911 13.993C15.1058 12.7724 16.6535 11.9413 18.3384 11.6045C20.0233 11.2678 21.7697 11.4406 23.3568 12.1011C24.944 12.7617 26.3005 13.8803 27.2549 15.3155C28.2093 16.7507 28.7188 18.438 28.7188 20.1641C28.7188 22.4787 27.8036 24.6985 26.1747 26.3352C24.5458 27.9719 22.3365 28.8914 20.0329 28.8914Z" fill="#FF379B"/>
<ellipse cx="20.036" cy="19.3822" rx="11.3143" ry="11.3143" fill="white"/>
<path d="M20.0356 25.2109L20.0356 13.5538" stroke="#FF379B" stroke-width="2" stroke-linecap="round"/>
<path d="M14.2075 19.3828L25.8647 19.3828" stroke="#FF379B" stroke-width="2" stroke-linecap="round"/>
</svg>
